<mxfile host="Electron" modified="2023-05-23T20:23:57.586Z" agent="Mozilla/5.0 (Windows NT 10.0; Win64; x64) AppleWebKit/537.36 (KHTML, like Gecko) draw.io/21.2.8 Chrome/112.0.5615.165 Electron/24.2.0 Safari/537.36" etag="UFtIlm-Q7WmOmALSziRq" version="21.2.8" type="device">
  <diagram id="d3xwrjJmMlI8IsP-cI8p" name="Page-1">
    <mxGraphModel dx="7075" dy="4805" grid="1" gridSize="10" guides="1" tooltips="1" connect="1" arrows="1" fold="1" page="1" pageScale="1" pageWidth="827" pageHeight="1169" math="0" shadow="0">
      <root>
        <mxCell id="0" />
        <mxCell id="1" parent="0" />
        <mxCell id="K2-mk_BaM7Cxro6s_20j-19" value="" style="rounded=1;whiteSpace=wrap;html=1;arcSize=5;" vertex="1" parent="1">
          <mxGeometry x="3640" y="-650" width="930" height="210" as="geometry" />
        </mxCell>
        <mxCell id="K2-mk_BaM7Cxro6s_20j-16" value="" style="rounded=1;whiteSpace=wrap;html=1;arcSize=5;" vertex="1" parent="1">
          <mxGeometry x="2130" y="-350" width="570" height="110" as="geometry" />
        </mxCell>
        <mxCell id="K2-mk_BaM7Cxro6s_20j-15" value="" style="rounded=1;whiteSpace=wrap;html=1;arcSize=5;" vertex="1" parent="1">
          <mxGeometry x="2130" y="-920" width="1060" height="475" as="geometry" />
        </mxCell>
        <mxCell id="K2-mk_BaM7Cxro6s_20j-13" value="" style="rounded=1;whiteSpace=wrap;html=1;glass=0;shadow=0;arcSize=5;" vertex="1" parent="1">
          <mxGeometry x="2130" y="-60" width="2460" height="480" as="geometry" />
        </mxCell>
        <mxCell id="K2-mk_BaM7Cxro6s_20j-9" value="" style="rounded=1;whiteSpace=wrap;html=1;" vertex="1" parent="1">
          <mxGeometry x="1990" y="630" width="550" height="100" as="geometry" />
        </mxCell>
        <mxCell id="K2-mk_BaM7Cxro6s_20j-5" value="" style="rounded=1;whiteSpace=wrap;html=1;" vertex="1" parent="1">
          <mxGeometry x="1100" y="245.5" width="980" height="190" as="geometry" />
        </mxCell>
        <mxCell id="K2-mk_BaM7Cxro6s_20j-3" value="" style="rounded=1;whiteSpace=wrap;html=1;" vertex="1" parent="1">
          <mxGeometry x="950" y="588" width="570" height="190" as="geometry" />
        </mxCell>
        <mxCell id="K2-mk_BaM7Cxro6s_20j-1" value="" style="rounded=1;whiteSpace=wrap;html=1;" vertex="1" parent="1">
          <mxGeometry x="520" y="245.5" width="570" height="190" as="geometry" />
        </mxCell>
        <mxCell id="YszDemMy2gP09iMwwfaw-6" value="" style="rounded=1;whiteSpace=wrap;html=1;" parent="1" vertex="1">
          <mxGeometry x="-390" y="200" width="570" height="190" as="geometry" />
        </mxCell>
        <mxCell id="YszDemMy2gP09iMwwfaw-3" value="" style="rounded=1;whiteSpace=wrap;html=1;" parent="1" vertex="1">
          <mxGeometry x="-390" y="-25" width="570" height="150" as="geometry" />
        </mxCell>
        <mxCell id="YszDemMy2gP09iMwwfaw-1" value="" style="rounded=1;whiteSpace=wrap;html=1;" parent="1" vertex="1">
          <mxGeometry x="-420" y="950" width="2100" height="330" as="geometry" />
        </mxCell>
        <mxCell id="OSCMjye8fPy7Yy5Lh9Bj-2" value="Нажата кнопка &quot;запросить помощь&quot;&lt;br&gt;US-010" style="rounded=0;whiteSpace=wrap;html=1;fillColor=#f0a30a;strokeColor=#BD7000;fontColor=#ffffff;" parent="1" vertex="1">
          <mxGeometry x="-100" y="220" width="120" height="60" as="geometry" />
        </mxCell>
        <mxCell id="OSCMjye8fPy7Yy5Lh9Bj-3" value="Форма на услугу заполнена&lt;br&gt;&lt;u&gt;US-020&lt;/u&gt;" style="rounded=0;whiteSpace=wrap;html=1;fillColor=#f0a30a;strokeColor=#BD7000;fontColor=#ffffff;" parent="1" vertex="1">
          <mxGeometry x="30" y="310" width="120" height="60" as="geometry" />
        </mxCell>
        <mxCell id="OSCMjye8fPy7Yy5Lh9Bj-6" value="" style="edgeStyle=orthogonalEdgeStyle;rounded=0;orthogonalLoop=1;jettySize=auto;html=1;entryX=0;entryY=0.367;entryDx=0;entryDy=0;entryPerimeter=0;" parent="1" source="OSCMjye8fPy7Yy5Lh9Bj-4" target="hO5w0gElnGxJXxH-nVZi-56" edge="1">
          <mxGeometry relative="1" as="geometry">
            <Array as="points">
              <mxPoint x="3640" y="260" />
              <mxPoint x="3640" y="272" />
            </Array>
          </mxGeometry>
        </mxCell>
        <mxCell id="OSCMjye8fPy7Yy5Lh9Bj-4" value="Задача выполнена&lt;br&gt;&lt;u&gt;US-030&lt;/u&gt;" style="rounded=0;whiteSpace=wrap;html=1;fillColor=#f0a30a;strokeColor=#BD7000;fontColor=#ffffff;" parent="1" vertex="1">
          <mxGeometry x="3410" y="230" width="120" height="60" as="geometry" />
        </mxCell>
        <mxCell id="Bmm3zK5qdp1RYX5W6UsU-3" value="" style="edgeStyle=orthogonalEdgeStyle;rounded=0;orthogonalLoop=1;jettySize=auto;html=1;" parent="1" source="OSCMjye8fPy7Yy5Lh9Bj-5" target="Bmm3zK5qdp1RYX5W6UsU-1" edge="1">
          <mxGeometry relative="1" as="geometry" />
        </mxCell>
        <mxCell id="OSCMjye8fPy7Yy5Lh9Bj-5" value="Баланс пользователя изменён&lt;br&gt;&lt;u&gt;US-030&lt;/u&gt;" style="rounded=0;whiteSpace=wrap;html=1;fillColor=#f0a30a;strokeColor=#BD7000;fontColor=#ffffff;" parent="1" vertex="1">
          <mxGeometry x="3970" y="211" width="120" height="60" as="geometry" />
        </mxCell>
        <mxCell id="OSCMjye8fPy7Yy5Lh9Bj-8" style="edgeStyle=orthogonalEdgeStyle;rounded=0;orthogonalLoop=1;jettySize=auto;html=1;exitX=1;exitY=0.25;exitDx=0;exitDy=0;entryX=0;entryY=0.75;entryDx=0;entryDy=0;" parent="1" source="OSCMjye8fPy7Yy5Lh9Bj-7" target="hO5w0gElnGxJXxH-nVZi-56" edge="1">
          <mxGeometry relative="1" as="geometry">
            <Array as="points">
              <mxPoint x="3640" y="325" />
              <mxPoint x="3640" y="296" />
              <mxPoint x="3710" y="296" />
            </Array>
          </mxGeometry>
        </mxCell>
        <mxCell id="OSCMjye8fPy7Yy5Lh9Bj-7" value="Задача провалена&lt;br&gt;&lt;u&gt;US-030&lt;/u&gt;" style="rounded=0;whiteSpace=wrap;html=1;fillColor=#f0a30a;strokeColor=#BD7000;fontColor=#ffffff;" parent="1" vertex="1">
          <mxGeometry x="3280" y="310" width="120" height="60" as="geometry" />
        </mxCell>
        <mxCell id="OSCMjye8fPy7Yy5Lh9Bj-9" value="Изменить размер скидку заказчика&lt;br&gt;&lt;u&gt;US-040&lt;/u&gt;" style="rounded=0;whiteSpace=wrap;html=1;fillColor=#f0a30a;strokeColor=#BD7000;fontColor=#ffffff;" parent="1" vertex="1">
          <mxGeometry x="4430" y="210" width="120" height="60" as="geometry" />
        </mxCell>
        <mxCell id="OSCMjye8fPy7Yy5Lh9Bj-46" style="edgeStyle=orthogonalEdgeStyle;rounded=0;orthogonalLoop=1;jettySize=auto;html=1;exitX=0.5;exitY=1;exitDx=0;exitDy=0;entryX=0.5;entryY=0;entryDx=0;entryDy=0;" parent="1" source="OSCMjye8fPy7Yy5Lh9Bj-14" target="hO5w0gElnGxJXxH-nVZi-28" edge="1">
          <mxGeometry relative="1" as="geometry">
            <mxPoint x="987" y="683" as="targetPoint" />
            <Array as="points">
              <mxPoint x="1010" y="600" />
              <mxPoint x="1040" y="600" />
            </Array>
          </mxGeometry>
        </mxCell>
        <mxCell id="hO5w0gElnGxJXxH-nVZi-92" style="edgeStyle=orthogonalEdgeStyle;rounded=0;orthogonalLoop=1;jettySize=auto;html=1;exitX=1;exitY=0.5;exitDx=0;exitDy=0;entryX=0;entryY=0.5;entryDx=0;entryDy=0;shadow=0;jumpStyle=arc;" parent="1" source="OSCMjye8fPy7Yy5Lh9Bj-14" target="hO5w0gElnGxJXxH-nVZi-88" edge="1">
          <mxGeometry relative="1" as="geometry">
            <Array as="points">
              <mxPoint x="1730" y="380" />
              <mxPoint x="1730" y="680" />
            </Array>
          </mxGeometry>
        </mxCell>
        <mxCell id="OSCMjye8fPy7Yy5Lh9Bj-14" value="Воркер назначен&lt;br&gt;US-070" style="rounded=0;whiteSpace=wrap;html=1;fillColor=#f0a30a;strokeColor=#BD7000;fontColor=#ffffff;" parent="1" vertex="1">
          <mxGeometry x="950" y="350" width="120" height="60" as="geometry" />
        </mxCell>
        <mxCell id="hO5w0gElnGxJXxH-nVZi-3" style="edgeStyle=orthogonalEdgeStyle;rounded=0;orthogonalLoop=1;jettySize=auto;html=1;exitX=1;exitY=0.5;exitDx=0;exitDy=0;" parent="1" source="OSCMjye8fPy7Yy5Lh9Bj-16" target="AU5BO0Ih3276CnvpscHl-20" edge="1">
          <mxGeometry relative="1" as="geometry" />
        </mxCell>
        <mxCell id="OSCMjye8fPy7Yy5Lh9Bj-16" value="Поступила заявка от рандомного кота&lt;br&gt;&lt;u&gt;US-080&lt;br&gt;US-090&lt;br&gt;&lt;/u&gt;" style="rounded=0;whiteSpace=wrap;html=1;fillColor=#f0a30a;strokeColor=#BD7000;fontColor=#ffffff;" parent="1" vertex="1">
          <mxGeometry x="-130" y="1090" width="120" height="60" as="geometry" />
        </mxCell>
        <mxCell id="OSCMjye8fPy7Yy5Lh9Bj-31" style="edgeStyle=orthogonalEdgeStyle;rounded=0;orthogonalLoop=1;jettySize=auto;html=1;exitX=0.75;exitY=1;exitDx=0;exitDy=0;entryX=1;entryY=0.75;entryDx=0;entryDy=0;jumpStyle=arc;" parent="1" source="OSCMjye8fPy7Yy5Lh9Bj-29" target="OSCMjye8fPy7Yy5Lh9Bj-7" edge="1">
          <mxGeometry relative="1" as="geometry">
            <Array as="points">
              <mxPoint x="3170" y="200" />
              <mxPoint x="3570" y="200" />
              <mxPoint x="3570" y="355" />
            </Array>
          </mxGeometry>
        </mxCell>
        <mxCell id="OSCMjye8fPy7Yy5Lh9Bj-29" value="Воркер не пришёл на заказ&lt;br&gt;&lt;u&gt;US-130&lt;/u&gt;" style="rounded=0;whiteSpace=wrap;html=1;fillColor=#f0a30a;strokeColor=#BD7000;fontColor=#ffffff;" parent="1" vertex="1">
          <mxGeometry x="3080" y="100" width="120" height="60" as="geometry" />
        </mxCell>
        <mxCell id="OSCMjye8fPy7Yy5Lh9Bj-45" value="" style="edgeStyle=orthogonalEdgeStyle;rounded=0;orthogonalLoop=1;jettySize=auto;html=1;entryX=0;entryY=0.5;entryDx=0;entryDy=0;" parent="1" source="OSCMjye8fPy7Yy5Lh9Bj-42" target="hO5w0gElnGxJXxH-nVZi-21" edge="1">
          <mxGeometry relative="1" as="geometry" />
        </mxCell>
        <mxCell id="OSCMjye8fPy7Yy5Lh9Bj-42" value="Сформирован список расходников&lt;br&gt;US-150" style="rounded=0;whiteSpace=wrap;html=1;fillColor=#f0a30a;strokeColor=#BD7000;fontColor=#ffffff;" parent="1" vertex="1">
          <mxGeometry x="950" y="271" width="120" height="60" as="geometry" />
        </mxCell>
        <mxCell id="hO5w0gElnGxJXxH-nVZi-26" value="" style="edgeStyle=orthogonalEdgeStyle;rounded=0;orthogonalLoop=1;jettySize=auto;html=1;" parent="1" source="OSCMjye8fPy7Yy5Lh9Bj-44" target="hO5w0gElnGxJXxH-nVZi-24" edge="1">
          <mxGeometry relative="1" as="geometry" />
        </mxCell>
        <mxCell id="OSCMjye8fPy7Yy5Lh9Bj-44" value="Отправлено уведомление воркеру US-160" style="rounded=0;whiteSpace=wrap;html=1;fillColor=#f0a30a;strokeColor=#BD7000;fontColor=#ffffff;" parent="1" vertex="1">
          <mxGeometry x="1510" y="271" width="120" height="60" as="geometry" />
        </mxCell>
        <mxCell id="OSCMjye8fPy7Yy5Lh9Bj-50" style="edgeStyle=orthogonalEdgeStyle;rounded=0;orthogonalLoop=1;jettySize=auto;html=1;exitX=0.5;exitY=0;exitDx=0;exitDy=0;entryX=0.5;entryY=1;entryDx=0;entryDy=0;jumpStyle=arc;" parent="1" source="OSCMjye8fPy7Yy5Lh9Bj-48" target="hO5w0gElnGxJXxH-nVZi-23" edge="1">
          <mxGeometry relative="1" as="geometry">
            <Array as="points">
              <mxPoint x="1440" y="653" />
              <mxPoint x="1440" y="600" />
              <mxPoint x="1439" y="600" />
            </Array>
            <mxPoint x="1440" y="370" as="targetPoint" />
          </mxGeometry>
        </mxCell>
        <mxCell id="OSCMjye8fPy7Yy5Lh9Bj-48" value="Печенье прибыло на склад&lt;br&gt;US-170" style="rounded=0;whiteSpace=wrap;html=1;fillColor=#f0a30a;strokeColor=#BD7000;fontColor=#ffffff;" parent="1" vertex="1">
          <mxGeometry x="1370" y="653" width="120" height="60" as="geometry" />
        </mxCell>
        <mxCell id="OSCMjye8fPy7Yy5Lh9Bj-51" value="Работа начата&lt;br&gt;US-180" style="rounded=0;whiteSpace=wrap;html=1;fillColor=#f0a30a;strokeColor=#BD7000;fontColor=#ffffff;" parent="1" vertex="1">
          <mxGeometry x="2560" y="271" width="120" height="60" as="geometry" />
        </mxCell>
        <mxCell id="OSCMjye8fPy7Yy5Lh9Bj-53" value="Воркер завершил работу US-180" style="rounded=0;whiteSpace=wrap;html=1;fillColor=#f0a30a;strokeColor=#BD7000;fontColor=#ffffff;" parent="1" vertex="1">
          <mxGeometry x="3280" y="230" width="120" height="60" as="geometry" />
        </mxCell>
        <mxCell id="AU5BO0Ih3276CnvpscHl-1" value="Кот тестировщик" style="rounded=0;whiteSpace=wrap;html=1;fillColor=#F7F763;strokeColor=#d6b656;" parent="1" vertex="1">
          <mxGeometry x="-230" y="310" width="120" height="60" as="geometry" />
        </mxCell>
        <mxCell id="AU5BO0Ih3276CnvpscHl-3" value="Заказать услугу" style="rounded=0;whiteSpace=wrap;html=1;fillColor=#dae8fc;strokeColor=#6c8ebf;" parent="1" vertex="1">
          <mxGeometry x="-100" y="310" width="120" height="60" as="geometry" />
        </mxCell>
        <mxCell id="AU5BO0Ih3276CnvpscHl-4" value="Тип услуг. описание" style="rounded=0;whiteSpace=wrap;html=1;fillColor=#60a917;strokeColor=#2D7600;fontColor=#ffffff;" parent="1" vertex="1">
          <mxGeometry x="-360" y="310" width="120" height="60" as="geometry" />
        </mxCell>
        <mxCell id="AU5BO0Ih3276CnvpscHl-5" value="Кот тестировщик" style="rounded=0;whiteSpace=wrap;html=1;fillColor=#F7F763;strokeColor=#d6b656;" parent="1" vertex="1">
          <mxGeometry x="-230" y="220" width="120" height="60" as="geometry" />
        </mxCell>
        <mxCell id="AU5BO0Ih3276CnvpscHl-6" value="Менеджеры" style="rounded=0;whiteSpace=wrap;html=1;fillColor=#F7F763;strokeColor=#d6b656;" parent="1" vertex="1">
          <mxGeometry x="-230" y="20" width="120" height="60" as="geometry" />
        </mxCell>
        <mxCell id="AU5BO0Ih3276CnvpscHl-7" value="Добавить тип услуги" style="rounded=0;whiteSpace=wrap;html=1;fillColor=#dae8fc;strokeColor=#6c8ebf;" parent="1" vertex="1">
          <mxGeometry x="-100" y="20" width="120" height="60" as="geometry" />
        </mxCell>
        <mxCell id="AU5BO0Ih3276CnvpscHl-8" value="&lt;u&gt;Добавлен тип услуги&lt;br&gt;US-021&lt;/u&gt;" style="rounded=0;whiteSpace=wrap;html=1;fillColor=#f0a30a;strokeColor=#BD7000;fontColor=#ffffff;" parent="1" vertex="1">
          <mxGeometry x="30" y="20" width="120" height="60" as="geometry" />
        </mxCell>
        <mxCell id="AU5BO0Ih3276CnvpscHl-9" value="Тип услуг. примерная стоимость" style="rounded=0;whiteSpace=wrap;html=1;fillColor=#60a917;strokeColor=#2D7600;fontColor=#ffffff;" parent="1" vertex="1">
          <mxGeometry x="-360" y="20" width="120" height="60" as="geometry" />
        </mxCell>
        <mxCell id="AU5BO0Ih3276CnvpscHl-13" value="Система мэтчинга" style="rounded=0;whiteSpace=wrap;html=1;fillColor=#ffe6cc;strokeColor=#d79b00;" parent="1" vertex="1">
          <mxGeometry x="690" y="310.5" width="120" height="60" as="geometry" />
        </mxCell>
        <mxCell id="AU5BO0Ih3276CnvpscHl-15" value="Произвести мэтчинг воркера" style="rounded=0;whiteSpace=wrap;html=1;fillColor=#dae8fc;strokeColor=#6c8ebf;" parent="1" vertex="1">
          <mxGeometry x="820" y="310.5" width="120" height="60" as="geometry" />
        </mxCell>
        <mxCell id="AU5BO0Ih3276CnvpscHl-17" value="" style="edgeStyle=orthogonalEdgeStyle;rounded=0;orthogonalLoop=1;jettySize=auto;html=1;exitX=1;exitY=0.5;exitDx=0;exitDy=0;entryX=0;entryY=0.5;entryDx=0;entryDy=0;" parent="1" source="OSCMjye8fPy7Yy5Lh9Bj-3" target="AU5BO0Ih3276CnvpscHl-16" edge="1">
          <mxGeometry relative="1" as="geometry">
            <mxPoint x="150" y="340" as="sourcePoint" />
            <mxPoint x="690" y="341" as="targetPoint" />
          </mxGeometry>
        </mxCell>
        <mxCell id="AU5BO0Ih3276CnvpscHl-16" value="Информация об обычных образцах и результаты прошлых аказов" style="rounded=0;whiteSpace=wrap;html=1;fillColor=#60a917;strokeColor=#2D7600;fontColor=#ffffff;" parent="1" vertex="1">
          <mxGeometry x="560" y="310.5" width="120" height="60" as="geometry" />
        </mxCell>
        <mxCell id="AU5BO0Ih3276CnvpscHl-18" value="Рандомный кот" style="rounded=0;whiteSpace=wrap;html=1;fillColor=#F7F763;strokeColor=#d6b656;" parent="1" vertex="1">
          <mxGeometry x="-390" y="1090" width="120" height="60" as="geometry" />
        </mxCell>
        <mxCell id="AU5BO0Ih3276CnvpscHl-19" value="Оставить заявку на добавление в пул" style="rounded=0;whiteSpace=wrap;html=1;fillColor=#dae8fc;strokeColor=#6c8ebf;" parent="1" vertex="1">
          <mxGeometry x="-260" y="1090" width="120" height="60" as="geometry" />
        </mxCell>
        <mxCell id="AU5BO0Ih3276CnvpscHl-20" value="Менеджер" style="rounded=0;whiteSpace=wrap;html=1;fillColor=#F7F763;strokeColor=#d6b656;" parent="1" vertex="1">
          <mxGeometry x="110" y="1090" width="120" height="60" as="geometry" />
        </mxCell>
        <mxCell id="hO5w0gElnGxJXxH-nVZi-1" value="Связаться с рандомным котом , сформировать набор тестов&lt;br&gt;US-110" style="rounded=0;whiteSpace=wrap;html=1;fillColor=#dae8fc;strokeColor=#6c8ebf;" parent="1" vertex="1">
          <mxGeometry x="240" y="1070" width="120" height="100" as="geometry" />
        </mxCell>
        <mxCell id="hO5w0gElnGxJXxH-nVZi-5" style="edgeStyle=orthogonalEdgeStyle;rounded=0;orthogonalLoop=1;jettySize=auto;html=1;exitX=1;exitY=0.5;exitDx=0;exitDy=0;" parent="1" source="hO5w0gElnGxJXxH-nVZi-2" target="hO5w0gElnGxJXxH-nVZi-4" edge="1">
          <mxGeometry relative="1" as="geometry" />
        </mxCell>
        <mxCell id="hO5w0gElnGxJXxH-nVZi-2" value="Набор тестов сформирован&lt;br&gt;&lt;u&gt;US-110&lt;/u&gt;" style="rounded=0;whiteSpace=wrap;html=1;fillColor=#f0a30a;strokeColor=#BD7000;fontColor=#ffffff;" parent="1" vertex="1">
          <mxGeometry x="370" y="1090" width="120" height="60" as="geometry" />
        </mxCell>
        <mxCell id="hO5w0gElnGxJXxH-nVZi-4" value="Рандомный кот" style="rounded=0;whiteSpace=wrap;html=1;fillColor=#F7F763;strokeColor=#d6b656;" parent="1" vertex="1">
          <mxGeometry x="580" y="1090" width="120" height="60" as="geometry" />
        </mxCell>
        <mxCell id="hO5w0gElnGxJXxH-nVZi-6" value="Пройти набор тестов" style="rounded=0;whiteSpace=wrap;html=1;fillColor=#dae8fc;strokeColor=#6c8ebf;" parent="1" vertex="1">
          <mxGeometry x="710" y="1090" width="120" height="60" as="geometry" />
        </mxCell>
        <mxCell id="hO5w0gElnGxJXxH-nVZi-7" value="&lt;div&gt;Тест пройден успешно&lt;/div&gt;&lt;div&gt;US-120&lt;/div&gt;" style="rounded=0;whiteSpace=wrap;html=1;fillColor=#d0cee2;strokeColor=#56517e;" parent="1" vertex="1">
          <mxGeometry x="1210" y="1050" width="120" height="60" as="geometry" />
        </mxCell>
        <mxCell id="hO5w0gElnGxJXxH-nVZi-11" value="" style="edgeStyle=orthogonalEdgeStyle;rounded=0;orthogonalLoop=1;jettySize=auto;html=1;" parent="1" source="hO5w0gElnGxJXxH-nVZi-8" target="hO5w0gElnGxJXxH-nVZi-9" edge="1">
          <mxGeometry relative="1" as="geometry" />
        </mxCell>
        <mxCell id="hO5w0gElnGxJXxH-nVZi-8" value="Набор тестов сформирован&lt;br&gt;&lt;u&gt;US-080&lt;/u&gt;" style="rounded=0;whiteSpace=wrap;html=1;fillColor=#f0a30a;strokeColor=#BD7000;fontColor=#ffffff;" parent="1" vertex="1">
          <mxGeometry x="840" y="1090" width="120" height="60" as="geometry" />
        </mxCell>
        <mxCell id="hO5w0gElnGxJXxH-nVZi-9" value="Система" style="rounded=0;whiteSpace=wrap;html=1;fillColor=#F7F763;strokeColor=#d6b656;" parent="1" vertex="1">
          <mxGeometry x="1070" y="1090" width="120" height="60" as="geometry" />
        </mxCell>
        <mxCell id="hO5w0gElnGxJXxH-nVZi-10" value="&lt;div&gt;Тест провален&lt;/div&gt;&lt;div&gt;US-120&lt;/div&gt;" style="rounded=0;whiteSpace=wrap;html=1;fillColor=#d0cee2;strokeColor=#56517e;" parent="1" vertex="1">
          <mxGeometry x="1210" y="1130" width="120" height="60" as="geometry" />
        </mxCell>
        <mxCell id="hO5w0gElnGxJXxH-nVZi-12" value="Добавить в пул воркеров" style="rounded=0;whiteSpace=wrap;html=1;fillColor=#dae8fc;strokeColor=#6c8ebf;" parent="1" vertex="1">
          <mxGeometry x="1340" y="1050" width="120" height="60" as="geometry" />
        </mxCell>
        <mxCell id="hO5w0gElnGxJXxH-nVZi-13" value="Отбраковать" style="rounded=0;whiteSpace=wrap;html=1;fillColor=#dae8fc;strokeColor=#6c8ebf;" parent="1" vertex="1">
          <mxGeometry x="1340" y="1130" width="120" height="60" as="geometry" />
        </mxCell>
        <mxCell id="hO5w0gElnGxJXxH-nVZi-14" value="Кот добавлен в пул воркеров&lt;br&gt;&lt;u&gt;US-120&lt;/u&gt;" style="rounded=0;whiteSpace=wrap;html=1;fillColor=#f0a30a;strokeColor=#BD7000;fontColor=#ffffff;" parent="1" vertex="1">
          <mxGeometry x="1470" y="1050" width="120" height="60" as="geometry" />
        </mxCell>
        <mxCell id="hO5w0gElnGxJXxH-nVZi-15" value="Кот отбракован&lt;br&gt;&lt;u&gt;US-120&lt;/u&gt;" style="rounded=0;whiteSpace=wrap;html=1;fillColor=#f0a30a;strokeColor=#BD7000;fontColor=#ffffff;" parent="1" vertex="1">
          <mxGeometry x="1470" y="1130" width="120" height="60" as="geometry" />
        </mxCell>
        <mxCell id="hO5w0gElnGxJXxH-nVZi-16" value="Отдел сборки расходников" style="rounded=0;whiteSpace=wrap;html=1;fillColor=#F7F763;strokeColor=#d6b656;" parent="1" vertex="1">
          <mxGeometry x="1249" y="271" width="120" height="60" as="geometry" />
        </mxCell>
        <mxCell id="hO5w0gElnGxJXxH-nVZi-17" value="Воркер" style="rounded=0;whiteSpace=wrap;html=1;fillColor=#F7F763;strokeColor=#d6b656;" parent="1" vertex="1">
          <mxGeometry x="2289" y="-677.5" width="120" height="60" as="geometry" />
        </mxCell>
        <mxCell id="hO5w0gElnGxJXxH-nVZi-18" value="Посмотреть список услуг" style="rounded=0;whiteSpace=wrap;html=1;fillColor=#dae8fc;strokeColor=#6c8ebf;" parent="1" vertex="1">
          <mxGeometry x="2420" y="-677.5" width="120" height="60" as="geometry" />
        </mxCell>
        <mxCell id="hO5w0gElnGxJXxH-nVZi-19" value="Получен список услуг&lt;br&gt;US-140" style="rounded=0;whiteSpace=wrap;html=1;fillColor=#f0a30a;strokeColor=#BD7000;fontColor=#ffffff;" parent="1" vertex="1">
          <mxGeometry x="2550" y="-677.5" width="120" height="60" as="geometry" />
        </mxCell>
        <mxCell id="hO5w0gElnGxJXxH-nVZi-20" value="Данные о назначенных, завершённых и отменённых услуг" style="rounded=0;whiteSpace=wrap;html=1;fillColor=#60a917;strokeColor=#2D7600;fontColor=#ffffff;" parent="1" vertex="1">
          <mxGeometry x="2160" y="-677.5" width="120" height="60" as="geometry" />
        </mxCell>
        <mxCell id="hO5w0gElnGxJXxH-nVZi-21" value="Список расходников, кому и подо что нужны" style="rounded=0;whiteSpace=wrap;html=1;fillColor=#60a917;strokeColor=#2D7600;fontColor=#ffffff;" parent="1" vertex="1">
          <mxGeometry x="1120" y="271" width="120" height="60" as="geometry" />
        </mxCell>
        <mxCell id="hO5w0gElnGxJXxH-nVZi-22" value="а кто определяет список расходников?" style="rounded=0;whiteSpace=wrap;html=1;" parent="1" vertex="1">
          <mxGeometry x="987" y="200" width="120" height="60" as="geometry" />
        </mxCell>
        <mxCell id="hO5w0gElnGxJXxH-nVZi-23" value="Собрать расходники, положить печенье уведомить воркера" style="rounded=0;whiteSpace=wrap;html=1;fillColor=#dae8fc;strokeColor=#6c8ebf;" parent="1" vertex="1">
          <mxGeometry x="1379" y="271" width="120" height="60" as="geometry" />
        </mxCell>
        <mxCell id="hO5w0gElnGxJXxH-nVZi-24" value="Воркер" style="rounded=0;whiteSpace=wrap;html=1;fillColor=#F7F763;strokeColor=#d6b656;" parent="1" vertex="1">
          <mxGeometry x="1690" y="271" width="120" height="60" as="geometry" />
        </mxCell>
        <mxCell id="hO5w0gElnGxJXxH-nVZi-25" value="Получить уведомление о готовности расходников" style="rounded=0;whiteSpace=wrap;html=1;fillColor=#dae8fc;strokeColor=#6c8ebf;" parent="1" vertex="1">
          <mxGeometry x="1820" y="271" width="120" height="60" as="geometry" />
        </mxCell>
        <mxCell id="hO5w0gElnGxJXxH-nVZi-27" value="Поставщик печенья" style="rounded=0;whiteSpace=wrap;html=1;fillColor=#ffe6cc;strokeColor=#d79b00;" parent="1" vertex="1">
          <mxGeometry x="1110" y="653" width="120" height="60" as="geometry" />
        </mxCell>
        <mxCell id="hO5w0gElnGxJXxH-nVZi-28" value="????" style="rounded=0;whiteSpace=wrap;html=1;fillColor=#60a917;strokeColor=#2D7600;fontColor=#ffffff;" parent="1" vertex="1">
          <mxGeometry x="980" y="653" width="120" height="60" as="geometry" />
        </mxCell>
        <mxCell id="hO5w0gElnGxJXxH-nVZi-29" value="Приготовить и привезти печенье" style="rounded=0;whiteSpace=wrap;html=1;fillColor=#dae8fc;strokeColor=#6c8ebf;" parent="1" vertex="1">
          <mxGeometry x="1241" y="653" width="120" height="60" as="geometry" />
        </mxCell>
        <mxCell id="K2-mk_BaM7Cxro6s_20j-7" style="edgeStyle=orthogonalEdgeStyle;rounded=0;orthogonalLoop=1;jettySize=auto;html=1;exitX=1;exitY=0.5;exitDx=0;exitDy=0;entryX=0;entryY=0.5;entryDx=0;entryDy=0;" edge="1" parent="1" source="hO5w0gElnGxJXxH-nVZi-30" target="hO5w0gElnGxJXxH-nVZi-33">
          <mxGeometry relative="1" as="geometry" />
        </mxCell>
        <mxCell id="hO5w0gElnGxJXxH-nVZi-30" value="Расходники приняты" style="rounded=0;whiteSpace=wrap;html=1;fillColor=#f0a30a;strokeColor=#BD7000;fontColor=#ffffff;" parent="1" vertex="1">
          <mxGeometry x="1948" y="270" width="120" height="60" as="geometry" />
        </mxCell>
        <mxCell id="hO5w0gElnGxJXxH-nVZi-31" value="Воркер" style="rounded=0;whiteSpace=wrap;html=1;fillColor=#F7F763;strokeColor=#d6b656;" parent="1" vertex="1">
          <mxGeometry x="2300" y="271" width="120" height="60" as="geometry" />
        </mxCell>
        <mxCell id="hO5w0gElnGxJXxH-nVZi-32" value="Приступить к работе, нажать кнопку приступил" style="rounded=0;whiteSpace=wrap;html=1;fillColor=#dae8fc;strokeColor=#6c8ebf;" parent="1" vertex="1">
          <mxGeometry x="2430" y="271" width="120" height="60" as="geometry" />
        </mxCell>
        <mxCell id="hO5w0gElnGxJXxH-nVZi-33" value="Фото" style="rounded=0;whiteSpace=wrap;html=1;fillColor=#60a917;strokeColor=#2D7600;fontColor=#ffffff;" parent="1" vertex="1">
          <mxGeometry x="2170" y="271" width="120" height="60" as="geometry" />
        </mxCell>
        <mxCell id="hO5w0gElnGxJXxH-nVZi-34" value="Менеджер" style="rounded=0;whiteSpace=wrap;html=1;fillColor=#F7F763;strokeColor=#d6b656;" parent="1" vertex="1">
          <mxGeometry x="2290" y="-837.5" width="120" height="60" as="geometry" />
        </mxCell>
        <mxCell id="hO5w0gElnGxJXxH-nVZi-35" value="Проверить заказ" style="rounded=0;whiteSpace=wrap;html=1;fillColor=#dae8fc;strokeColor=#6c8ebf;" parent="1" vertex="1">
          <mxGeometry x="2420" y="-837.5" width="120" height="60" as="geometry" />
        </mxCell>
        <mxCell id="hO5w0gElnGxJXxH-nVZi-36" value="Список всех выполненных заказов;&lt;br&gt;Инфа по воркеру;&lt;br&gt;Телефон и имя клиента клиента" style="rounded=0;whiteSpace=wrap;html=1;fillColor=#60a917;strokeColor=#2D7600;fontColor=#ffffff;" parent="1" vertex="1">
          <mxGeometry x="2160" y="-807.5" width="120" height="100" as="geometry" />
        </mxCell>
        <mxCell id="hO5w0gElnGxJXxH-nVZi-53" style="edgeStyle=orthogonalEdgeStyle;rounded=0;orthogonalLoop=1;jettySize=auto;html=1;exitX=1;exitY=0.5;exitDx=0;exitDy=0;entryX=0;entryY=0.5;entryDx=0;entryDy=0;" parent="1" source="hO5w0gElnGxJXxH-nVZi-37" target="hO5w0gElnGxJXxH-nVZi-52" edge="1">
          <mxGeometry relative="1" as="geometry" />
        </mxCell>
        <mxCell id="hO5w0gElnGxJXxH-nVZi-37" value="Информация о заказе отображена US-190" style="rounded=0;whiteSpace=wrap;html=1;fillColor=#f0a30a;strokeColor=#BD7000;fontColor=#ffffff;" parent="1" vertex="1">
          <mxGeometry x="2550" y="-837.5" width="120" height="60" as="geometry" />
        </mxCell>
        <mxCell id="hO5w0gElnGxJXxH-nVZi-38" value="Заказчик" style="rounded=0;whiteSpace=wrap;html=1;fillColor=#F7F763;strokeColor=#d6b656;" parent="1" vertex="1">
          <mxGeometry x="2170" y="-25" width="120" height="60" as="geometry" />
        </mxCell>
        <mxCell id="hO5w0gElnGxJXxH-nVZi-39" value="Отменить заказ" style="rounded=0;whiteSpace=wrap;html=1;fillColor=#dae8fc;strokeColor=#6c8ebf;" parent="1" vertex="1">
          <mxGeometry x="2300" y="-25" width="120" height="60" as="geometry" />
        </mxCell>
        <mxCell id="hO5w0gElnGxJXxH-nVZi-41" style="edgeStyle=orthogonalEdgeStyle;rounded=0;orthogonalLoop=1;jettySize=auto;html=1;exitX=1;exitY=0.5;exitDx=0;exitDy=0;entryX=0;entryY=0.5;entryDx=0;entryDy=0;" parent="1" source="hO5w0gElnGxJXxH-nVZi-40" target="hO5w0gElnGxJXxH-nVZi-42" edge="1">
          <mxGeometry relative="1" as="geometry">
            <mxPoint x="2230" y="-20" as="targetPoint" />
            <Array as="points">
              <mxPoint x="2570" y="5" />
              <mxPoint x="2570" y="-170" />
              <mxPoint x="2010" y="-170" />
              <mxPoint x="2010" y="-857" />
            </Array>
          </mxGeometry>
        </mxCell>
        <mxCell id="hO5w0gElnGxJXxH-nVZi-40" value="Заказ отменён заказчиком US-200" style="rounded=0;whiteSpace=wrap;html=1;fillColor=#f0a30a;strokeColor=#BD7000;fontColor=#ffffff;" parent="1" vertex="1">
          <mxGeometry x="2430" y="-25" width="120" height="60" as="geometry" />
        </mxCell>
        <mxCell id="hO5w0gElnGxJXxH-nVZi-42" value="Информация по отменённому заказу" style="rounded=0;whiteSpace=wrap;html=1;fillColor=#60a917;strokeColor=#2D7600;fontColor=#ffffff;" parent="1" vertex="1">
          <mxGeometry x="2160" y="-887.5" width="120" height="60" as="geometry" />
        </mxCell>
        <mxCell id="hO5w0gElnGxJXxH-nVZi-43" value="Крон по времени начала работы над заказом" style="rounded=0;whiteSpace=wrap;html=1;fillColor=#F7F763;strokeColor=#d6b656;" parent="1" vertex="1">
          <mxGeometry x="2686.5" y="100" width="120" height="60" as="geometry" />
        </mxCell>
        <mxCell id="hO5w0gElnGxJXxH-nVZi-44" value="Проверить, есть ли отчёт о начале работы" style="rounded=0;whiteSpace=wrap;html=1;fillColor=#dae8fc;strokeColor=#6c8ebf;" parent="1" vertex="1">
          <mxGeometry x="2816.5" y="100" width="120" height="60" as="geometry" />
        </mxCell>
        <mxCell id="hO5w0gElnGxJXxH-nVZi-45" value="Если работа не начата" style="rounded=0;whiteSpace=wrap;html=1;fillColor=#d0cee2;strokeColor=#56517e;" parent="1" vertex="1">
          <mxGeometry x="2946.5" y="100" width="120" height="60" as="geometry" />
        </mxCell>
        <mxCell id="hO5w0gElnGxJXxH-nVZi-46" value="Создать копию задачи" style="rounded=0;whiteSpace=wrap;html=1;fillColor=#dae8fc;strokeColor=#6c8ebf;" parent="1" vertex="1">
          <mxGeometry x="3210" y="100" width="120" height="60" as="geometry" />
        </mxCell>
        <mxCell id="hO5w0gElnGxJXxH-nVZi-47" value="Воркер" style="rounded=0;whiteSpace=wrap;html=1;fillColor=#F7F763;strokeColor=#d6b656;" parent="1" vertex="1">
          <mxGeometry x="2880" y="271" width="120" height="60" as="geometry" />
        </mxCell>
        <mxCell id="hO5w0gElnGxJXxH-nVZi-48" value="Фото бумажного отчёта м подписью клиента" style="rounded=0;whiteSpace=wrap;html=1;fillColor=#60a917;strokeColor=#2D7600;fontColor=#ffffff;" parent="1" vertex="1">
          <mxGeometry x="2750" y="271" width="120" height="60" as="geometry" />
        </mxCell>
        <mxCell id="hO5w0gElnGxJXxH-nVZi-49" value="Загрузить отчёт" style="rounded=0;whiteSpace=wrap;html=1;fillColor=#dae8fc;strokeColor=#6c8ebf;" parent="1" vertex="1">
          <mxGeometry x="3010" y="271" width="120" height="60" as="geometry" />
        </mxCell>
        <mxCell id="hO5w0gElnGxJXxH-nVZi-50" value="Успешно" style="rounded=0;whiteSpace=wrap;html=1;fillColor=#d0cee2;strokeColor=#56517e;" parent="1" vertex="1">
          <mxGeometry x="3150" y="230" width="120" height="60" as="geometry" />
        </mxCell>
        <mxCell id="hO5w0gElnGxJXxH-nVZi-51" value="Провалено" style="rounded=0;whiteSpace=wrap;html=1;fillColor=#d0cee2;strokeColor=#56517e;" parent="1" vertex="1">
          <mxGeometry x="3150" y="310" width="120" height="60" as="geometry" />
        </mxCell>
        <mxCell id="hO5w0gElnGxJXxH-nVZi-52" value="Если менеджер связался с заказчиком" style="rounded=0;whiteSpace=wrap;html=1;fillColor=#d0cee2;strokeColor=#56517e;" parent="1" vertex="1">
          <mxGeometry x="2765" y="-837.5" width="120" height="60" as="geometry" />
        </mxCell>
        <mxCell id="hO5w0gElnGxJXxH-nVZi-54" value="Заполнить форму проверка качества" style="rounded=0;whiteSpace=wrap;html=1;fillColor=#dae8fc;strokeColor=#6c8ebf;" parent="1" vertex="1">
          <mxGeometry x="2900" y="-837.5" width="120" height="60" as="geometry" />
        </mxCell>
        <mxCell id="hO5w0gElnGxJXxH-nVZi-55" value="Заполнена форма проверки качества US-210" style="rounded=0;whiteSpace=wrap;html=1;fillColor=#f0a30a;strokeColor=#BD7000;fontColor=#ffffff;" parent="1" vertex="1">
          <mxGeometry x="3030" y="-837.5" width="120" height="60" as="geometry" />
        </mxCell>
        <mxCell id="hO5w0gElnGxJXxH-nVZi-56" value="Система" style="rounded=0;whiteSpace=wrap;html=1;fillColor=#F7F763;strokeColor=#d6b656;" parent="1" vertex="1">
          <mxGeometry x="3710" y="250.5" width="120" height="60" as="geometry" />
        </mxCell>
        <mxCell id="hO5w0gElnGxJXxH-nVZi-57" value="Списать средства с баланса заказчика" style="rounded=0;whiteSpace=wrap;html=1;fillColor=#dae8fc;strokeColor=#6c8ebf;" parent="1" vertex="1">
          <mxGeometry x="3840" y="211" width="120" height="60" as="geometry" />
        </mxCell>
        <mxCell id="hO5w0gElnGxJXxH-nVZi-58" value="Баланс воркера изменён&lt;br&gt;&lt;u&gt;US-240&lt;/u&gt;" style="rounded=0;whiteSpace=wrap;html=1;fillColor=#f0a30a;strokeColor=#BD7000;fontColor=#ffffff;" parent="1" vertex="1">
          <mxGeometry x="3970" y="290" width="120" height="60" as="geometry" />
        </mxCell>
        <mxCell id="hO5w0gElnGxJXxH-nVZi-59" value="Начислить средства воркеру" style="rounded=0;whiteSpace=wrap;html=1;fillColor=#dae8fc;strokeColor=#6c8ebf;" parent="1" vertex="1">
          <mxGeometry x="3840" y="290" width="120" height="60" as="geometry" />
        </mxCell>
        <mxCell id="hO5w0gElnGxJXxH-nVZi-60" value="Клиент" style="rounded=0;whiteSpace=wrap;html=1;fillColor=#F7F763;strokeColor=#d6b656;" parent="1" vertex="1">
          <mxGeometry x="2290" y="-602.5" width="120" height="60" as="geometry" />
        </mxCell>
        <mxCell id="hO5w0gElnGxJXxH-nVZi-61" value="Воркер" style="rounded=0;whiteSpace=wrap;html=1;fillColor=#F7F763;strokeColor=#d6b656;" parent="1" vertex="1">
          <mxGeometry x="2290" y="-532.5" width="120" height="60" as="geometry" />
        </mxCell>
        <mxCell id="hO5w0gElnGxJXxH-nVZi-62" value="Проверить список заказов" style="rounded=0;whiteSpace=wrap;html=1;fillColor=#dae8fc;strokeColor=#6c8ebf;" parent="1" vertex="1">
          <mxGeometry x="2420" y="-572.5" width="120" height="60" as="geometry" />
        </mxCell>
        <mxCell id="hO5w0gElnGxJXxH-nVZi-63" value="Список сделанных заказов и их стоимость" style="rounded=0;whiteSpace=wrap;html=1;fillColor=#60a917;strokeColor=#2D7600;fontColor=#ffffff;" parent="1" vertex="1">
          <mxGeometry x="2160" y="-602.5" width="120" height="60" as="geometry" />
        </mxCell>
        <mxCell id="hO5w0gElnGxJXxH-nVZi-64" value="Список выполненных заказов и их стоимость" style="rounded=0;whiteSpace=wrap;html=1;fillColor=#60a917;strokeColor=#2D7600;fontColor=#ffffff;" parent="1" vertex="1">
          <mxGeometry x="2160" y="-532.5" width="120" height="60" as="geometry" />
        </mxCell>
        <mxCell id="hO5w0gElnGxJXxH-nVZi-65" value="Отображен список заказов&lt;br&gt;&lt;u&gt;US-250&lt;br&gt;US-260&lt;br&gt;&lt;/u&gt;" style="rounded=0;whiteSpace=wrap;html=1;fillColor=#f0a30a;strokeColor=#BD7000;fontColor=#ffffff;" parent="1" vertex="1">
          <mxGeometry x="2550" y="-572.5" width="120" height="60" as="geometry" />
        </mxCell>
        <mxCell id="hO5w0gElnGxJXxH-nVZi-66" value="Менеджер" style="rounded=0;whiteSpace=wrap;html=1;fillColor=#F7F763;strokeColor=#d6b656;" parent="1" vertex="1">
          <mxGeometry x="2290" y="-327" width="120" height="60" as="geometry" />
        </mxCell>
        <mxCell id="hO5w0gElnGxJXxH-nVZi-67" value="Начислить воркеру средства" style="rounded=0;whiteSpace=wrap;html=1;fillColor=#dae8fc;strokeColor=#6c8ebf;" parent="1" vertex="1">
          <mxGeometry x="2420" y="-327" width="120" height="60" as="geometry" />
        </mxCell>
        <mxCell id="hO5w0gElnGxJXxH-nVZi-68" value="Баланс воркера изменён&lt;br&gt;&lt;u&gt;US-270&lt;/u&gt;" style="rounded=0;whiteSpace=wrap;html=1;fillColor=#f0a30a;strokeColor=#BD7000;fontColor=#ffffff;" parent="1" vertex="1">
          <mxGeometry x="2550" y="-327" width="120" height="60" as="geometry" />
        </mxCell>
        <mxCell id="hO5w0gElnGxJXxH-nVZi-69" value="Дополнительно начисленные средства, за что и кто" style="rounded=0;whiteSpace=wrap;html=1;fillColor=#60a917;strokeColor=#2D7600;fontColor=#ffffff;" parent="1" vertex="1">
          <mxGeometry x="2160" y="-327" width="120" height="60" as="geometry" />
        </mxCell>
        <mxCell id="hO5w0gElnGxJXxH-nVZi-70" value="Крон по времени&lt;br&gt;00:00 воскресенья" style="rounded=0;whiteSpace=wrap;html=1;fillColor=#F7F763;strokeColor=#d6b656;" parent="1" vertex="1">
          <mxGeometry x="3800" y="-625.5" width="120" height="60" as="geometry" />
        </mxCell>
        <mxCell id="hO5w0gElnGxJXxH-nVZi-72" value="Крон по времени&lt;br&gt;00:00 последнего дня месяца" style="rounded=0;whiteSpace=wrap;html=1;fillColor=#F7F763;strokeColor=#d6b656;" parent="1" vertex="1">
          <mxGeometry x="3800" y="-532.5" width="120" height="60" as="geometry" />
        </mxCell>
        <mxCell id="hO5w0gElnGxJXxH-nVZi-73" value="Посчитать для клиента сумму по запрошенным задачам" style="rounded=0;whiteSpace=wrap;html=1;fillColor=#dae8fc;strokeColor=#6c8ebf;" parent="1" vertex="1">
          <mxGeometry x="3930" y="-625.5" width="120" height="60" as="geometry" />
        </mxCell>
        <mxCell id="hO5w0gElnGxJXxH-nVZi-74" value="Выставить инфойс" style="rounded=0;whiteSpace=wrap;html=1;fillColor=#dae8fc;strokeColor=#6c8ebf;" parent="1" vertex="1">
          <mxGeometry x="4060" y="-625.5" width="120" height="60" as="geometry" />
        </mxCell>
        <mxCell id="hO5w0gElnGxJXxH-nVZi-79" value="" style="edgeStyle=orthogonalEdgeStyle;rounded=0;orthogonalLoop=1;jettySize=auto;html=1;" parent="1" source="hO5w0gElnGxJXxH-nVZi-77" target="hO5w0gElnGxJXxH-nVZi-78" edge="1">
          <mxGeometry relative="1" as="geometry" />
        </mxCell>
        <mxCell id="hO5w0gElnGxJXxH-nVZi-77" value="Выставлен инвойс&lt;br&gt;&lt;u&gt;US-220&lt;/u&gt;" style="rounded=0;whiteSpace=wrap;html=1;fillColor=#f0a30a;strokeColor=#BD7000;fontColor=#ffffff;" parent="1" vertex="1">
          <mxGeometry x="4190" y="-625.5" width="120" height="60" as="geometry" />
        </mxCell>
        <mxCell id="hO5w0gElnGxJXxH-nVZi-78" value="Списание суммы у клиента" style="rounded=0;whiteSpace=wrap;html=1;fillColor=#ffe6cc;strokeColor=#d79b00;" parent="1" vertex="1">
          <mxGeometry x="4420" y="-625.5" width="120" height="60" as="geometry" />
        </mxCell>
        <mxCell id="hO5w0gElnGxJXxH-nVZi-80" value="Посчитать для воркера сумму по запрошенным задачам" style="rounded=0;whiteSpace=wrap;html=1;fillColor=#dae8fc;strokeColor=#6c8ebf;" parent="1" vertex="1">
          <mxGeometry x="3930" y="-532.5" width="120" height="60" as="geometry" />
        </mxCell>
        <mxCell id="hO5w0gElnGxJXxH-nVZi-81" value="Выставить инфойс" style="rounded=0;whiteSpace=wrap;html=1;fillColor=#dae8fc;strokeColor=#6c8ebf;" parent="1" vertex="1">
          <mxGeometry x="4060" y="-532.5" width="120" height="60" as="geometry" />
        </mxCell>
        <mxCell id="hO5w0gElnGxJXxH-nVZi-82" value="" style="edgeStyle=orthogonalEdgeStyle;rounded=0;orthogonalLoop=1;jettySize=auto;html=1;" parent="1" source="hO5w0gElnGxJXxH-nVZi-83" target="hO5w0gElnGxJXxH-nVZi-84" edge="1">
          <mxGeometry relative="1" as="geometry" />
        </mxCell>
        <mxCell id="hO5w0gElnGxJXxH-nVZi-83" value="Выставлен инвойс&lt;br&gt;&lt;u&gt;US-230&lt;/u&gt;" style="rounded=0;whiteSpace=wrap;html=1;fillColor=#f0a30a;strokeColor=#BD7000;fontColor=#ffffff;" parent="1" vertex="1">
          <mxGeometry x="4190" y="-532.5" width="120" height="60" as="geometry" />
        </mxCell>
        <mxCell id="hO5w0gElnGxJXxH-nVZi-84" value="Перевод воркеру через золотую шляпу" style="rounded=0;whiteSpace=wrap;html=1;fillColor=#ffe6cc;strokeColor=#d79b00;" parent="1" vertex="1">
          <mxGeometry x="4420" y="-532.5" width="120" height="60" as="geometry" />
        </mxCell>
        <mxCell id="hO5w0gElnGxJXxH-nVZi-85" value="Список сделанных заказов и их стоимость" style="rounded=0;whiteSpace=wrap;html=1;fillColor=#60a917;strokeColor=#2D7600;fontColor=#ffffff;" parent="1" vertex="1">
          <mxGeometry x="3670" y="-625.5" width="120" height="60" as="geometry" />
        </mxCell>
        <mxCell id="hO5w0gElnGxJXxH-nVZi-86" value="Список выполненных заказов и их стоимость" style="rounded=0;whiteSpace=wrap;html=1;fillColor=#60a917;strokeColor=#2D7600;fontColor=#ffffff;" parent="1" vertex="1">
          <mxGeometry x="3670" y="-532.5" width="120" height="60" as="geometry" />
        </mxCell>
        <mxCell id="hO5w0gElnGxJXxH-nVZi-88" value="Инфо о заказе, воркере и сумма ставки" style="rounded=0;whiteSpace=wrap;html=1;fillColor=#60a917;strokeColor=#2D7600;fontColor=#ffffff;" parent="1" vertex="1">
          <mxGeometry x="2010" y="650" width="120" height="60" as="geometry" />
        </mxCell>
        <mxCell id="hO5w0gElnGxJXxH-nVZi-93" value="Система" style="rounded=0;whiteSpace=wrap;html=1;fillColor=#F7F763;strokeColor=#d6b656;" parent="1" vertex="1">
          <mxGeometry x="2140" y="650" width="120" height="60" as="geometry" />
        </mxCell>
        <mxCell id="hO5w0gElnGxJXxH-nVZi-94" value="Произвести расчёт по ставкам" style="rounded=0;whiteSpace=wrap;html=1;fillColor=#dae8fc;strokeColor=#6c8ebf;" parent="1" vertex="1">
          <mxGeometry x="2270" y="650" width="120" height="60" as="geometry" />
        </mxCell>
        <mxCell id="hO5w0gElnGxJXxH-nVZi-95" value="Рассчитано, сколько нужно отдать кому денег&lt;br&gt;&lt;u&gt;US-290&lt;/u&gt;" style="rounded=0;whiteSpace=wrap;html=1;fillColor=#f0a30a;strokeColor=#BD7000;fontColor=#ffffff;" parent="1" vertex="1">
          <mxGeometry x="2400" y="650" width="120" height="60" as="geometry" />
        </mxCell>
        <mxCell id="Bmm3zK5qdp1RYX5W6UsU-1" value="Система" style="rounded=0;whiteSpace=wrap;html=1;fillColor=#F7F763;strokeColor=#d6b656;" parent="1" vertex="1">
          <mxGeometry x="4170" y="211" width="120" height="60" as="geometry" />
        </mxCell>
        <mxCell id="Bmm3zK5qdp1RYX5W6UsU-2" value="Пересчитать скидочную программу" style="rounded=0;whiteSpace=wrap;html=1;fillColor=#dae8fc;strokeColor=#6c8ebf;" parent="1" vertex="1">
          <mxGeometry x="4300" y="211" width="120" height="60" as="geometry" />
        </mxCell>
        <mxCell id="Bmm3zK5qdp1RYX5W6UsU-7" value="Command" style="rounded=0;whiteSpace=wrap;html=1;fillColor=#dae8fc;strokeColor=#6c8ebf;" parent="1" vertex="1">
          <mxGeometry x="-370" y="-710" width="120" height="60" as="geometry" />
        </mxCell>
        <mxCell id="Bmm3zK5qdp1RYX5W6UsU-8" value="Event" style="rounded=0;whiteSpace=wrap;html=1;fillColor=#f0a30a;strokeColor=#BD7000;fontColor=#ffffff;" parent="1" vertex="1">
          <mxGeometry x="-370" y="-640" width="120" height="60" as="geometry" />
        </mxCell>
        <mxCell id="Bmm3zK5qdp1RYX5W6UsU-9" value="Actor" style="rounded=0;whiteSpace=wrap;html=1;fillColor=#F7F763;strokeColor=#d6b656;" parent="1" vertex="1">
          <mxGeometry x="-370" y="-570" width="120" height="60" as="geometry" />
        </mxCell>
        <mxCell id="Bmm3zK5qdp1RYX5W6UsU-10" value="Read model" style="rounded=0;whiteSpace=wrap;html=1;fillColor=#60a917;strokeColor=#2D7600;fontColor=#ffffff;" parent="1" vertex="1">
          <mxGeometry x="-370" y="-500" width="120" height="60" as="geometry" />
        </mxCell>
        <mxCell id="Bmm3zK5qdp1RYX5W6UsU-12" value="External system" style="rounded=0;whiteSpace=wrap;html=1;fillColor=#ffe6cc;strokeColor=#d79b00;" parent="1" vertex="1">
          <mxGeometry x="-370" y="-427" width="120" height="60" as="geometry" />
        </mxCell>
        <mxCell id="Bmm3zK5qdp1RYX5W6UsU-13" value="Policy" style="rounded=0;whiteSpace=wrap;html=1;fillColor=#d0cee2;strokeColor=#56517e;" parent="1" vertex="1">
          <mxGeometry x="-370" y="-360" width="120" height="60" as="geometry" />
        </mxCell>
        <mxCell id="YszDemMy2gP09iMwwfaw-2" value="Регистрация нового воркера" style="text;html=1;strokeColor=none;fillColor=none;align=left;verticalAlign=middle;whiteSpace=wrap;rounded=0;fontSize=21;" parent="1" vertex="1">
          <mxGeometry x="-420" y="900" width="580" height="50" as="geometry" />
        </mxCell>
        <mxCell id="YszDemMy2gP09iMwwfaw-4" value="Регистрация нового воркера" style="text;html=1;strokeColor=none;fillColor=none;align=left;verticalAlign=middle;whiteSpace=wrap;rounded=0;fontSize=21;" parent="1" vertex="1">
          <mxGeometry x="-390" y="-75" width="430" height="50" as="geometry" />
        </mxCell>
        <mxCell id="YszDemMy2gP09iMwwfaw-7" value="Заказ услуги" style="text;html=1;strokeColor=none;fillColor=none;align=left;verticalAlign=middle;whiteSpace=wrap;rounded=0;fontSize=21;" parent="1" vertex="1">
          <mxGeometry x="-390" y="150" width="430" height="50" as="geometry" />
        </mxCell>
        <mxCell id="K2-mk_BaM7Cxro6s_20j-2" value="Система мэтчинга" style="text;html=1;strokeColor=none;fillColor=none;align=left;verticalAlign=middle;whiteSpace=wrap;rounded=0;fontSize=21;" vertex="1" parent="1">
          <mxGeometry x="520" y="190" width="250" height="50" as="geometry" />
        </mxCell>
        <mxCell id="K2-mk_BaM7Cxro6s_20j-4" value="Поставка печенья" style="text;html=1;strokeColor=none;fillColor=none;align=left;verticalAlign=middle;whiteSpace=wrap;rounded=0;fontSize=21;" vertex="1" parent="1">
          <mxGeometry x="1020" y="538" width="250" height="50" as="geometry" />
        </mxCell>
        <mxCell id="K2-mk_BaM7Cxro6s_20j-6" value="Склад" style="text;html=1;strokeColor=none;fillColor=none;align=left;verticalAlign=middle;whiteSpace=wrap;rounded=0;fontSize=21;" vertex="1" parent="1">
          <mxGeometry x="1145" y="195.5" width="250" height="50" as="geometry" />
        </mxCell>
        <mxCell id="K2-mk_BaM7Cxro6s_20j-10" value="Система ставок" style="text;html=1;strokeColor=none;fillColor=none;align=left;verticalAlign=middle;whiteSpace=wrap;rounded=0;fontSize=21;" vertex="1" parent="1">
          <mxGeometry x="1990" y="580" width="250" height="50" as="geometry" />
        </mxCell>
        <mxCell id="K2-mk_BaM7Cxro6s_20j-14" value="Управление заказом" style="text;html=1;strokeColor=none;fillColor=none;align=left;verticalAlign=middle;whiteSpace=wrap;rounded=0;fontSize=21;" vertex="1" parent="1">
          <mxGeometry x="2130" y="-110" width="250" height="50" as="geometry" />
        </mxCell>
        <mxCell id="K2-mk_BaM7Cxro6s_20j-17" value="Ручное управление балансом" style="text;html=1;strokeColor=none;fillColor=none;align=left;verticalAlign=middle;whiteSpace=wrap;rounded=0;fontSize=21;" vertex="1" parent="1">
          <mxGeometry x="2130" y="-400" width="340" height="50" as="geometry" />
        </mxCell>
        <mxCell id="K2-mk_BaM7Cxro6s_20j-18" value="Мониторинг заказов" style="text;html=1;strokeColor=none;fillColor=none;align=left;verticalAlign=middle;whiteSpace=wrap;rounded=0;fontSize=21;" vertex="1" parent="1">
          <mxGeometry x="2130" y="-970" width="340" height="50" as="geometry" />
        </mxCell>
        <mxCell id="K2-mk_BaM7Cxro6s_20j-20" value="Биллинг" style="text;html=1;strokeColor=none;fillColor=none;align=left;verticalAlign=middle;whiteSpace=wrap;rounded=0;fontSize=21;" vertex="1" parent="1">
          <mxGeometry x="3640" y="-700" width="340" height="50" as="geometry" />
        </mxCell>
      </root>
    </mxGraphModel>
  </diagram>
</mxfile>
